<?xml version="1.0" encoding="UTF-8"?>
<svg width="63px" height="63px" viewBox="0 0 63 63" version="1.1" xmlns="http://www.w3.org/2000/svg" xmlns:xlink="http://www.w3.org/1999/xlink">
    <!-- Generator: Sketch 49.2 (51160) - http://www.bohemiancoding.com/sketch -->
    <title>Combined Shape</title>
    <desc>Created with Sketch.</desc>
    <defs>
        <linearGradient x1="-44.3466656%" y1="-124.670667%" x2="264.116402%" y2="262.821052%" id="linearGradient-1">
            <stop stop-color="#10B1E5" stop-opacity="0.22" offset="0%"></stop>
            <stop stop-color="#0C8BEC" offset="100%"></stop>
        </linearGradient>
        <path d="M207.5,724 C192.312169,724 180,711.687831 180,696.5 C180,681.312169 192.312169,669 207.5,669 C222.687831,669 235,681.312169 235,696.5 C235,711.687831 222.687831,724 207.5,724 Z M218.589339,699.28009 C218.589339,696.262418 216.212832,693.816112 213.281262,693.816112 L210.657966,693.816112 C209.175203,693.816112 207.973186,695.053433 207.973186,696.579746 C207.973186,698.106058 209.175203,699.343379 210.657966,699.343379 L212.440988,699.343379 L212.440988,704.701875 C211.29329,705.067549 210.131946,705.250383 208.956922,705.250383 C206.360939,705.250383 204.311509,704.46279 202.808571,702.887581 C201.305633,701.312373 200.554175,699.188685 200.554175,696.516456 C200.554175,693.872356 201.319296,691.755701 202.84956,690.166427 C204.379824,688.577154 206.442917,687.78253 209.0389,687.78253 C209.754004,687.78253 210.59775,687.899372 211.570139,688.133057 C211.906777,688.213959 212.251326,688.254811 212.597017,688.254811 C215.091531,688.254811 217.113735,686.173214 217.113735,683.605434 C214.845665,682.424028 212.15408,681.833333 209.0389,681.833333 C204.612065,681.833333 200.957248,683.169428 198.07434,685.841657 C195.191432,688.513886 193.75,692.072117 193.75,696.516456 C193.75,701.017053 195.129949,704.575284 197.88989,707.191255 C200.64983,709.807227 204.243164,711.115193 208.669999,711.115193 C212.659616,711.115193 215.966029,710.130702 218.589339,708.161692 L218.589339,699.28009 Z" id="path-2"></path>
    </defs>
    <g id="Page-1" stroke="none" stroke-width="1" fill="none" fill-rule="evenodd">
        <g id="Landing-Page" transform="translate(-176.000000, -665.000000)">
            <g id="Combined-Shape">
                <use fill="#FFFFFF" fill-rule="evenodd" xlink:href="#path-2"></use>
                <path stroke="url(#linearGradient-1)" stroke-width="4" d="M207.5,726 C191.2076,726 178,712.7924 178,696.5 C178,680.2076 191.2076,667 207.5,667 C223.7924,667 237,680.2076 237,696.5 C237,712.7924 223.7924,726 207.5,726 Z M214.852029,684.783787 C213.172,684.153088 211.238009,683.833333 209.0389,683.833333 C205.100706,683.833333 201.934186,684.990921 199.433942,687.30845 C196.974411,689.588243 195.75,692.610748 195.75,696.516456 C195.75,700.491762 196.92471,703.520779 199.265737,705.739689 C201.63733,707.987571 204.735211,709.115193 208.669999,709.115193 C211.837769,709.115193 214.462543,708.441569 216.589339,707.110759 L216.589339,699.28009 C216.589339,697.354239 215.095099,695.816112 213.281262,695.816112 L210.657966,695.816112 C210.292936,695.816112 209.973186,696.145253 209.973186,696.579746 C209.973186,697.014238 210.292936,697.343379 210.657966,697.343379 L214.440988,697.343379 L214.440988,706.163708 L213.048144,706.607488 C211.705355,707.035321 210.339303,707.250383 208.956922,707.250383 C205.838734,707.250383 203.262157,706.260208 201.361552,704.268211 C199.481569,702.297826 198.554175,699.676927 198.554175,696.516456 C198.554175,693.378508 199.500158,690.76151 201.408853,688.779213 C203.334723,686.779078 205.922074,685.78253 209.0389,685.78253 C209.926514,685.78253 210.922316,685.920429 212.037475,686.188425 C212.221116,686.232557 212.408802,686.254811 212.597017,686.254811 C213.57758,686.254811 214.438004,685.659596 214.852029,684.783787 Z"></path>
            </g>
        </g>
    </g>
</svg>