<?xml version="1.0" encoding="UTF-8"?>
<svg width="37px" height="37px" viewBox="0 0 37 37" version="1.1" xmlns="http://www.w3.org/2000/svg" xmlns:xlink="http://www.w3.org/1999/xlink">
    <!-- Generator: Sketch 49.2 (51160) - http://www.bohemiancoding.com/sketch -->
    <title>Combined Shape</title>
    <desc>Created with Sketch.</desc>
    <defs></defs>
    <g id="Page-1" stroke="none" stroke-width="1" fill="none" fill-rule="evenodd">
        <g id="Landing-Page" transform="translate(-31.000000, -673.000000)" fill="#FFFFFF">
            <path d="M49.5,710 C39.2827321,710 31,701.717268 31,691.5 C31,681.282732 39.2827321,673 49.5,673 C59.7172679,673 68,681.282732 68,691.5 C68,701.717268 59.7172679,710 49.5,710 Z M60.9450352,688.818076 L60.9651105,688.818076 L56.9781525,684.978872 L56.9685164,684.978872 C56.3855292,684.377416 55.5712743,684 54.666279,684 C53.2642189,684 52.0845932,684.904192 51.6461483,686.156892 C51.1330232,685.809188 50.5147034,685.606025 49.8482029,685.606025 C49.1817024,685.606025 48.5633826,685.809188 48.0502575,686.156892 C47.6118126,684.904192 46.432187,684 45.0301268,684 C44.1251315,684 43.3108767,684.377416 42.7278895,684.978872 L42.7246774,684.978872 L38.7369164,688.818076 L38.7513707,688.818076 C37.6769397,689.84272 37,691.278507 37,692.879714 C37,695.984161 39.5166417,698.5 42.6210888,698.5 C45.1192612,698.5 47.2135183,696.859445 47.9442598,694.604585 C48.4782633,694.999668 49.1327186,695.242178 49.8482029,695.242178 C50.5636872,695.242178 51.2181425,694.999668 51.752146,694.604585 C52.4828875,696.859445 54.5771446,698.5 57.0753171,698.5 C60.1797641,698.5 62.6964058,695.984161 62.6964058,692.879714 C62.6964058,691.278507 62.0194661,689.84272 60.9450352,688.818076 Z M42.6210888,696.894778 C40.4071828,696.894778 38.6060254,695.09362 38.6060254,692.879714 C38.6060254,690.665808 40.4071828,688.864651 42.6210888,688.864651 C44.8349947,688.864651 46.6361522,690.665808 46.6361522,692.879714 C46.6361522,695.09362 44.8349947,696.894778 42.6210888,696.894778 Z M57.0753171,696.894778 C54.8614111,696.894778 53.0602536,695.09362 53.0602536,692.879714 C53.0602536,690.665808 54.8614111,688.864651 57.0753171,688.864651 C59.289223,688.864651 61.0903805,690.665808 61.0903805,692.879714 C61.0903805,695.09362 59.289223,696.894778 57.0753171,696.894778 Z" id="Combined-Shape"></path>
        </g>
    </g>
</svg>