<?xml version="1.0" encoding="UTF-8"?>
<svg width="37px" height="37px" viewBox="0 0 37 37" version="1.1" xmlns="http://www.w3.org/2000/svg" xmlns:xlink="http://www.w3.org/1999/xlink">
    <!-- Generator: Sketch 49.2 (51160) - http://www.bohemiancoding.com/sketch -->
    <title>Combined Shape</title>
    <desc>Created with Sketch.</desc>
    <defs></defs>
    <g id="Page-1" stroke="none" stroke-width="1" fill="none" fill-rule="evenodd">
        <g id="Landing-Page" transform="translate(-277.000000, -673.000000)" fill="#FFFFFF">
            <path d="M295.5,710 C285.282732,710 277,701.717268 277,691.5 C277,681.282732 285.282732,673 295.5,673 C305.717268,673 314,681.282732 314,691.5 C314,701.717268 305.717268,710 295.5,710 Z M288.791716,683 C287.802178,683 287,683.798957 287,684.8 C287,685.794112 287.808391,686.6 288.791716,686.6 L303.208284,686.6 C304.197822,686.6 305,685.801043 305,684.8 C305,683.805888 304.191609,683 303.208284,683 L288.791716,683 Z M288.791716,690.2 C287.802178,690.2 287,690.998957 287,692 C287,692.994112 287.808391,693.8 288.791716,693.8 L303.208284,693.8 C304.197822,693.8 305,693.001043 305,692 C305,691.005888 304.191609,690.2 303.208284,690.2 L288.791716,690.2 Z M288.805273,697.4 C287.808249,697.4 287,698.198957 287,699.2 C287,700.194112 287.807354,701 288.805273,701 L297.794727,701 C298.791751,701 299.6,700.201043 299.6,699.2 C299.6,698.205888 298.792646,697.4 297.794727,697.4 L288.805273,697.4 Z" id="Combined-Shape"></path>
        </g>
    </g>
</svg>