<?xml version="1.0" encoding="UTF-8"?>
<svg width="17px" height="18px" viewBox="0 0 17 18" version="1.1" xmlns="http://www.w3.org/2000/svg" xmlns:xlink="http://www.w3.org/1999/xlink">
    <!-- Generator: Sketch 49.2 (51160) - http://www.bohemiancoding.com/sketch -->
    <title>Path</title>
    <desc>Created with Sketch.</desc>
    <defs></defs>
    <g id="Page-1" stroke="none" stroke-width="1" fill="none" fill-rule="evenodd">
        <g id="Chat" transform="translate(-323.000000, -690.000000)" fill="#FFFFFF">
            <g id="Group-6" transform="translate(13.000000, 671.000000)">
                <g id="Group" transform="translate(11.000000, 10.000000)">
                    <g id="Group-5" transform="translate(289.000000, 0.000000)">
                        <path d="M10.2905893,16.0282031 L15.9253619,10.691742 C17.1186078,9.56478746 18.6764567,8.96816448 20.3337428,9.0013102 C21.9910288,9.03445592 23.515732,9.73051607 24.6426865,10.923762 C25.8027868,12.0838623 26.4325555,13.6748569 26.366264,15.3321429 C26.2999726,16.989429 25.6370582,18.5141322 24.4438122,19.6410867 L18.1129795,25.6404622 C17.218045,26.502251 16.0910905,26.8999996 14.9309902,26.8999996 C13.7045985,26.8999996 12.4782069,26.4028138 11.5832724,25.4747336 C9.82654917,23.6185732 9.89284061,20.7017498 11.749001,18.9450265 L17.814668,13.2108168 C18.4112909,12.6473395 19.1736425,12.349028 20.0022856,12.3821738 C20.8309286,12.4153195 21.5932802,12.7467767 22.1567574,13.3433997 C22.7202347,13.9400227 23.0185462,14.7023742 22.9854005,15.5310173 C22.9522547,16.3596603 22.6207975,17.1220119 22.0241746,17.6854891 L19.836557,19.7405239 C19.4388083,20.1051268 18.8421853,20.1051268 18.4775824,19.7073781 C18.1129795,19.3096295 18.1129795,18.7130065 18.5107281,18.3484036 L20.7314914,16.2602231 C20.9635115,16.0613488 21.0629486,15.7630373 21.0960944,15.4647258 C21.0960944,15.1664143 20.9966572,14.8681028 20.7977829,14.6360828 C20.5989085,14.4040627 20.3005971,14.3046256 20.0022856,14.2714799 C19.7039741,14.2714799 19.4056626,14.370917 19.1736425,14.5697914 L13.0748298,20.3371468 C11.981021,21.3646642 11.9478753,23.0882417 12.9753927,24.1489048 C14.00291,25.2427136 15.7264875,25.2758593 16.7871506,24.2483419 L23.1179834,18.2489664 C23.9466264,17.4534691 24.4106665,16.392806 24.4438122,15.2658515 C24.4769579,14.138897 24.0460635,13.0450882 23.283712,12.2164452 C22.4882146,11.3878021 21.4275516,10.923762 20.3005971,10.8906163 C19.1736425,10.8574706 18.0798337,11.288365 17.2511907,12.0507165 L11.6164181,17.3871777 C11.2186695,17.7517806 10.6220465,17.7517806 10.2574435,17.3540319 C9.89284061,16.989429 9.92598634,16.392806 10.2905893,16.0282031 Z" id="Path"></path>
                    </g>
                </g>
            </g>
        </g>
    </g>
</svg>