<?xml version="1.0" encoding="UTF-8"?>
<svg width="84px" height="21px" viewBox="0 0 84 21" version="1.1" xmlns="http://www.w3.org/2000/svg" xmlns:xlink="http://www.w3.org/1999/xlink">
    <!-- Generator: Sketch 49.2 (51160) - http://www.bohemiancoding.com/sketch -->
    <title>Combined Shape</title>
    <desc>Created with Sketch.</desc>
    <defs></defs>
    <g id="Page-1" stroke="none" stroke-width="1" fill="none" fill-rule="evenodd">
        <g id="Landing-Page" transform="translate(-165.000000, -45.000000)" fill="#FFFFFF">
            <path d="M182.216657,57.7068461 L182.216657,63.862867 C180.398387,65.2276289 178.106644,65.9099998 175.341359,65.9099998 C172.273028,65.9099998 169.782414,65.0034213 167.869443,63.1902376 C165.956471,61.377054 165,58.9107707 165,55.7913146 C165,52.7108517 165.999086,50.2445687 167.997289,48.3923916 C169.995492,46.5402145 172.528721,45.6141399 175.597051,45.6141399 C177.756247,45.6141399 179.62184,46.0235623 181.193886,46.8424196 C181.193886,48.6222005 179.792255,50.064998 178.063256,50.064998 C177.82365,50.064998 177.584836,50.0366827 177.351505,49.9806083 C176.677523,49.8186365 176.092705,49.7376503 175.597051,49.7376503 C173.797722,49.7376503 172.36775,50.288421 171.307092,51.389979 C170.246435,52.4915369 169.716114,53.9586341 169.716114,55.7913146 C169.716114,57.6434917 170.236965,59.1154631 171.278682,60.2072726 C172.320399,61.2990821 173.740901,61.8449789 175.540231,61.8449789 C176.354664,61.8449789 177.159615,61.718253 177.955108,61.4647971 L177.955108,57.7507132 L176.719259,57.7507132 C175.691526,57.7507132 174.858383,56.8931006 174.858383,55.8351817 C174.858383,54.7772629 175.691526,53.9196503 176.719259,53.9196503 L178.53752,53.9196503 C180.569452,53.9196503 182.216657,55.6152356 182.216657,57.7068461 Z M186.06066,57.4068659 C186.06066,55.7941698 187.330707,54.4868213 188.897388,54.4868213 C190.46407,54.4868213 191.734117,55.7941698 191.734117,57.4068659 C191.734117,59.019562 190.46407,60.3269103 188.897388,60.3269103 C187.330707,60.3269103 186.06066,59.019562 186.06066,57.4068659 Z M199.262853,58.3063635 C199.338614,59.6126359 199.717414,60.6264439 200.399266,61.3478181 C201.081117,62.0691922 201.980768,62.429874 203.098247,62.429874 C203.261465,62.429874 203.439434,62.4155104 203.632153,62.3867836 L203.632155,62.3867987 C205.020347,62.1798739 206.308659,63.1705333 206.509679,64.5994976 C206.527134,64.7235791 206.535896,64.8487923 206.535896,64.9741677 C205.418418,65.5980589 204.073676,65.9099998 202.50163,65.9099998 C200.342434,65.9099998 198.562072,65.2032587 197.160489,63.7897551 C195.758906,62.3762515 195.058124,60.5484725 195.058124,58.3063635 C195.096005,56.083751 195.796786,54.246224 197.160489,52.7937272 C198.524191,51.3412304 200.389784,50.614993 202.757323,50.614993 C204.215727,50.614993 205.475239,50.8976894 206.535896,51.4630909 C206.535896,52.9712556 205.348171,54.1938647 203.883038,54.1938647 C203.787463,54.1938647 203.691957,54.1885481 203.59694,54.177938 C203.451635,54.1617209 203.313815,54.1536083 203.183478,54.1536083 C202.028119,54.1536083 201.090587,54.509416 200.370855,55.2210419 C199.651124,55.9326678 199.281793,56.9610981 199.262853,58.3063635 Z M213.240733,49.2697342 L213.240733,53.3639999 C213.979405,51.5898093 215.418847,50.7027272 217.559102,50.7027272 C218.960685,50.7027272 220.101822,51.1608905 220.982547,52.0772307 C221.863271,52.9935709 222.303627,54.3778089 222.303627,56.2299859 L222.303627,65.6760418 C220.012801,65.6760418 218.155719,63.7644167 218.155719,61.4063076 L218.155719,56.9026153 C218.155719,56.0447649 217.947379,55.3721422 217.530692,54.8847272 C217.114005,54.3973122 216.574214,54.1536083 215.911303,54.1536083 C215.627199,54.1536083 215.357303,54.197475 215.101609,54.2852097 C214.845915,54.3729444 214.56655,54.5289149 214.263505,54.7531258 C213.960459,54.9773367 213.714239,55.3575147 213.524836,55.8936712 C213.335433,56.4298278 213.240733,57.07808 213.240733,57.8384475 L213.240733,63.5411747 C213.240733,64.7202293 212.312192,65.6760418 211.166779,65.6760418 C210.021366,65.6760418 209.092825,64.7202293 209.092825,63.5411747 L209.092825,45 C211.383651,45 213.240733,46.9116252 213.240733,49.2697342 Z M225.968559,51.5800699 C227.104977,50.9171854 228.74329,50.5857482 230.883545,50.5857482 C232.929099,50.5857482 234.453771,51.0390374 235.457607,51.9456293 C236.461444,52.8522212 236.963355,54.2608295 236.963355,56.1714964 L236.963355,65.6760418 L234.662118,65.6760418 C233.689302,65.6760418 232.900678,64.8642557 232.900678,63.862867 C232.294588,65.1301459 231.101367,65.7637761 229.320977,65.7637761 C227.919394,65.7637761 226.825607,65.3543535 226.039585,64.5354964 C225.253562,63.7166392 224.860556,62.693083 224.860556,61.4647971 C224.860556,60.0415452 225.367202,58.9351298 226.380508,58.1455174 C227.393815,57.3559051 228.894812,56.9611048 230.883545,56.9611048 L232.701806,56.9611048 L232.701806,55.9375384 C232.701806,54.6897559 231.896855,54.0658741 230.286928,54.0658741 C229.948702,54.0658741 229.567361,54.1137238 229.142903,54.2094233 L229.1429,54.2094078 C227.73219,54.527471 226.3381,53.6081175 226.029111,52.1559743 C225.98886,51.9668073 225.968559,51.7737213 225.968559,51.5800699 Z M232.701806,59.5931328 L231.366521,59.5931328 C230.665729,59.5931328 230.125938,59.749103 229.747132,60.0610488 C229.368326,60.3729947 229.178926,60.772669 229.178926,61.2600838 C229.178926,62.2544103 229.737656,62.7515663 230.855135,62.7515663 C231.442284,62.7515663 231.896845,62.5663513 232.21883,62.195916 C232.540816,61.8254806 232.701806,61.3185764 232.701806,60.6751887 L232.701806,59.5931328 Z M245.031887,53.9781398 L245.031887,60.7921677 C245.031887,61.318576 245.178673,61.7182503 245.472247,61.9912027 C245.765822,62.264155 246.149358,62.4006292 246.622865,62.4006292 C247.736898,62.4006292 248.639999,63.3302558 248.639999,64.4770077 L248.639999,65.3543495 C247.939207,65.6662953 246.992206,65.8222656 245.798966,65.8222656 C242.522292,65.8222656 240.88398,64.1358349 240.88398,60.762923 L240.88398,53.9781398 L240.329978,53.9781398 C239.490532,53.9781398 238.810026,53.277647 238.810026,52.4135454 C238.810026,51.5494438 239.490532,50.848951 240.329978,50.848951 L240.88398,50.848951 L240.88398,47.3395804 L241.622648,47.3395804 C243.505519,47.3395804 245.031887,48.9107791 245.031887,50.848951 L246.864353,50.848951 C247.7038,50.848951 248.384306,51.5494438 248.384306,52.4135454 C248.384306,53.277647 247.7038,53.9781398 246.864353,53.9781398 L245.031887,53.9781398 Z" id="Combined-Shape"></path>
        </g>
    </g>
</svg>