<?xml version="1.0" encoding="UTF-8"?>
<svg width="188px" height="155px" viewBox="0 0 188 155" version="1.1" xmlns="http://www.w3.org/2000/svg" xmlns:xlink="http://www.w3.org/1999/xlink">
    <!-- Generator: Sketch 49.2 (51160) - http://www.bohemiancoding.com/sketch -->
    <title>Combined Shape</title>
    <desc>Created with Sketch.</desc>
    <defs>
        <filter x="-3.9%" y="-3.4%" width="107.8%" height="109.5%" filterUnits="objectBoundingBox" id="filter-1">
            <feOffset dx="0" dy="2" in="SourceAlpha" result="shadowOffsetOuter1"></feOffset>
            <feGaussianBlur stdDeviation="2" in="shadowOffsetOuter1" result="shadowBlurOuter1"></feGaussianBlur>
            <feColorMatrix values="0 0 0 0 0   0 0 0 0 0   0 0 0 0 0  0 0 0 0.21204144 0" type="matrix" in="shadowBlurOuter1" result="shadowMatrixOuter1"></feColorMatrix>
            <feMerge>
                <feMergeNode in="shadowMatrixOuter1"></feMergeNode>
                <feMergeNode in="SourceGraphic"></feMergeNode>
            </feMerge>
        </filter>
        <linearGradient x1="-47.520353%" y1="-43.3007714%" x2="100%" y2="100%" id="linearGradient-2">
            <stop stop-color="#F3FFFE" offset="0%"></stop>
            <stop stop-color="#D6DDFF" offset="100%"></stop>
        </linearGradient>
    </defs>
    <g id="Page-1" stroke="none" stroke-width="1" fill="none" fill-rule="evenodd">
        <g id="Login-Page" transform="translate(-114.000000, -144.000000)" fill="url(#linearGradient-2)" fill-rule="nonzero">
            <g id="Group" filter="url(#filter-1)" transform="translate(118.000000, 146.000000)">
                <path d="M179.910448,63.9335337 C179.910448,99.2455129 139.635696,127.871275 89.9575667,127.871275 C84.991159,127.871275 80.1512546,127.509403 75.4050558,126.962387 C61.8879947,139.388064 41.239922,145.426278 17.7853606,147 C27.3902049,138.37398 34.2635252,125.855732 36.4187586,115.231 C14.3604137,103.579562 0,84.9726062 0,63.9377415 C0,28.6257621 40.2747522,0 89.9528812,0 C139.631011,0 179.910448,28.6215543 179.910448,63.9335337 Z M51.2317891,68.2680827 C51.2317891,64.976077 48.6392363,62.3073792 45.4411601,62.3073792 L42.5793821,62.3073792 C40.9618224,62.3073792 39.6505312,63.6571839 39.6505312,65.3222524 C39.6505312,66.9873209 40.9618224,68.3371256 42.5793821,68.3371256 L44.5244969,68.3371256 L44.5244969,74.1827575 C43.2724627,74.5816742 42.0055424,74.7811293 40.7236979,74.7811293 C37.8917159,74.7811293 35.6559742,73.9219372 34.0164056,72.2035278 C32.3768371,70.4851184 31.5570651,68.1683686 31.5570651,65.2532095 C31.5570651,62.3687362 32.3917421,60.059658 34.0611209,58.3259054 C35.7304998,56.5921529 37.9811465,55.7252896 40.8131285,55.7252896 C41.5932419,55.7252896 42.5136922,55.8527545 43.5744797,56.1076834 C43.9417219,56.1959396 44.3175931,56.2405053 44.6947109,56.2405053 C47.4159991,56.2405053 49.622039,53.9696726 49.622039,51.1684584 C47.147781,49.8796512 44.2115069,49.2352573 40.8131285,49.2352573 C35.9838539,49.2352573 31.9967811,50.692815 28.8517906,53.6079741 C25.7068001,56.5231332 24.1343284,60.4048395 24.1343284,65.2532095 C24.1343284,70.162951 25.6397278,74.0446578 28.6505718,76.8984448 C31.6614158,79.7522319 35.5814164,81.1791045 40.4106909,81.1791045 C44.7630001,81.1791045 48.3699968,80.1051143 51.2317891,77.9571026 L51.2317891,68.2680827 Z M57.2819023,67.795941 C57.2819023,70.3341788 59.2808404,72.3918266 61.7466556,72.3918266 C64.2124706,72.3918266 66.2114088,70.3341788 66.2114088,67.795941 C66.2114088,65.2577033 64.2124706,63.200055 61.7466556,63.200055 C59.2808404,63.200055 57.2819023,65.2577033 57.2819023,67.795941 Z M78.0609582,69.2116689 C78.0907684,67.0943428 78.6720617,65.4756866 79.8048542,64.3556518 C80.9376468,63.235617 82.4132369,62.675608 84.2316671,62.675608 C84.4368066,62.675608 84.6537232,62.6883764 84.8824188,62.7139006 C85.0319684,62.7305999 85.1822856,62.7389679 85.3327125,62.7389679 C87.6386986,62.7389679 89.5080704,60.8146918 89.5080704,58.4409769 C87.8386917,57.5510862 85.8563339,57.1061476 83.5609379,57.1061476 C79.8346461,57.1061476 76.8983718,58.2491797 74.7520274,60.5352782 C72.605683,62.8213766 71.5027169,65.713478 71.4430965,69.2116689 C71.4430965,72.7405456 72.5460626,75.6173044 74.7520274,77.8420311 C76.9579921,80.0667578 79.760122,81.1791045 83.1585004,81.1791045 C85.6327582,81.1791045 87.7492605,80.6881376 89.5080704,79.7061893 C89.5080704,79.5088599 89.4942805,79.3117856 89.4668077,79.1164926 C89.1504199,76.867432 87.1227337,75.3082237 84.9378447,75.6339046 L84.9378413,75.6338809 C84.6345186,75.6790943 84.3544119,75.7017013 84.0975213,75.7017013 C82.3387114,75.7017013 80.9227417,75.1340208 79.8495695,73.9986431 C78.7763973,72.8632655 78.1801997,71.2676234 78.0609582,69.2116689 Z M100.060877,54.9888321 C100.060877,51.2773817 97.1379988,48.2686567 93.5324457,48.2686567 L93.5324457,77.450788 C93.5324457,79.3065133 94.9938848,80.8108757 96.7966613,80.8108757 C98.5994379,80.8108757 100.060877,79.3065133 100.060877,77.450788 L100.060877,68.4752114 C100.060877,67.2784618 100.209926,66.2581714 100.50803,65.4143096 C100.806133,64.5704478 101.193661,63.9720819 101.670627,63.6191942 C102.147593,63.2663066 102.587288,63.0208232 102.989728,62.8827367 C103.392167,62.7446502 103.816959,62.675608 104.264113,62.675608 C105.307475,62.675608 106.157057,63.0591758 106.812884,63.8263229 C107.468712,64.5934701 107.796621,65.6521172 107.796621,67.0022962 L107.796621,74.0907003 C107.796621,77.8021508 110.719499,80.8108757 114.325052,80.8108757 L114.325052,65.9436385 C114.325052,63.0284793 113.631972,60.8498141 112.245791,59.4075775 C110.859611,57.9653409 109.063564,57.2442334 106.8576,57.2442334 C103.489032,57.2442334 101.22348,58.6404202 100.060877,61.4328358 L100.060877,54.9888321 Z M120.093323,58.6250913 C120.093323,58.9298811 120.125276,59.233781 120.188628,59.5315127 C120.674947,61.8170547 122.86912,63.2640339 125.089449,62.7634312 L125.089454,62.7634556 C125.757512,62.6128333 126.357709,62.5375222 126.890046,62.5375222 C129.423925,62.5375222 130.690845,63.5194558 130.690845,65.4833525 L130.690845,67.0943534 L127.829067,67.0943534 C124.698982,67.0943534 122.336548,67.7157333 120.741695,68.9585116 C119.146842,70.2012901 118.349427,71.9426879 118.349427,74.1827575 C118.349427,76.1159684 118.967982,77.7269533 120.205111,79.0157604 C121.44224,80.3045674 123.163762,80.9489615 125.369726,80.9489615 C128.171898,80.9489615 130.049921,79.951685 131.003852,77.9571026 C131.003852,79.5331978 132.245074,80.8108757 133.776199,80.8108757 L137.398137,80.8108757 L137.398137,65.8515813 C137.398137,62.8443644 136.608175,60.6273425 135.028227,59.2004488 C133.448279,57.7735551 131.048583,57.060119 127.829067,57.060119 C124.460499,57.060119 121.881943,57.5817712 120.093323,58.6250913 Z M150.097277,62.3994364 L152.981413,62.3994364 C154.302626,62.3994364 155.373681,61.2969242 155.373681,59.9369064 C155.373681,58.5768886 154.302626,57.4743764 152.981413,57.4743764 L150.097277,57.4743764 C150.097277,54.4238692 147.694911,51.9509446 144.731443,51.9509446 L143.568846,51.9509446 L143.568846,57.4743764 L142.696898,57.4743764 C141.375686,57.4743764 140.304631,58.5768886 140.304631,59.9369064 C140.304631,61.2969242 141.375686,62.3994364 142.696898,62.3994364 L143.568846,62.3994364 L143.568846,73.0780712 C143.568846,78.3867294 146.147402,81.0410187 151.30459,81.0410187 C153.182641,81.0410187 154.673136,80.7955356 155.776118,80.3045611 L155.776119,78.9237046 C155.776119,77.1188207 154.354719,75.6556727 152.601333,75.6556727 C151.856075,75.6556727 151.252424,75.4408747 150.790364,75.0112723 C150.328304,74.58167 150.097277,73.9526187 150.097277,73.1240998 L150.097277,62.3994364 Z M130.690845,71.2369273 L130.690845,72.9399854 C130.690845,73.9526194 130.437461,74.7504408 129.930685,75.3334725 C129.423909,75.9165042 128.708472,76.2080159 127.784352,76.2080159 C126.025542,76.2080159 125.14615,75.4255374 125.14615,73.8605574 C125.14615,73.0934106 125.444249,72.4643593 126.040456,71.9733848 C126.636662,71.4824103 127.486244,71.2369273 128.589227,71.2369273 L130.690845,71.2369273 Z" id="Combined-Shape"></path>
            </g>
        </g>
    </g>
</svg>