<?xml version="1.0" encoding="UTF-8"?>
<svg width="37px" height="37px" viewBox="0 0 37 37" version="1.1" xmlns="http://www.w3.org/2000/svg" xmlns:xlink="http://www.w3.org/1999/xlink">
    <!-- Generator: Sketch 49.2 (51160) - http://www.bohemiancoding.com/sketch -->
    <title>Combined Shape</title>
    <desc>Created with Sketch.</desc>
    <defs></defs>
    <g id="Page-1" stroke="none" stroke-width="1" fill="none" fill-rule="evenodd">
        <g id="Landing-Page" transform="translate(-103.000000, -673.000000)" fill="#FFFFFF">
            <path d="M121.5,710 C111.282732,710 103,701.717268 103,691.5 C103,681.282732 111.282732,673 121.5,673 C131.717268,673 140,681.282732 140,691.5 C140,701.717268 131.717268,710 121.5,710 Z M127.642809,695.564589 C128.53156,694.272805 129.053268,692.709848 129.053268,691.026753 C129.053268,686.600699 125.452569,683 121.026515,683 C116.600699,683 113,686.600699 113,691.026753 C113,695.452807 116.600699,699.053506 121.026515,699.053506 C122.70961,699.053506 124.272567,698.531798 125.564351,697.643046 L129.310683,701.38938 C129.597524,701.676462 129.973837,701.82 130.349913,701.82 C130.725989,701.82 131.102302,701.676459 131.389143,701.38938 C131.963303,700.815461 131.963303,699.884843 131.389143,699.310921 L127.642809,695.564589 Z M115.939698,691.026753 C115.939698,688.221742 118.221744,685.939698 121.026515,685.939698 C123.831526,685.939698 126.11357,688.221744 126.11357,691.026753 C126.11357,693.831762 123.831524,696.113808 121.026515,696.113808 C118.221744,696.113808 115.939698,693.831762 115.939698,691.026753 Z" id="Combined-Shape"></path>
        </g>
    </g>
</svg>